# xmcd CD database file
#
# Track frame offsets:
#	150
#	9296
#	18740
#	29098
#	41298
#	52006
#	72919
#	81914
#	100578
#	111549
#	124480
#
# Disc length: 1827 seconds
#
# Revision: 0
# Processed by: cddbd v1.5.2PL0 Copyright (c) Steve Scherf et al.
# Submitted via: CDex 1.70beta2
#
DISCID=9507210b
DTITLE=Clayton, Stew - Cd. - MB - The Yodeling Turkey
DYEAR=2002
DGENRE=Country
TTITLE0=The Yodeling Turkey
TTITLE1=Maggie
TTITLE2=I Had But Fifty Cents
TTITLE3=Mother MayBelle
TTITLE4=My filipino Rose
TTITLE5=I'll Never Go North Again
TTITLE6=Nellie Gray
TTITLE7=Little Joe the Wrangler
TTITLE8=My Little Grey Haireed Mother
TTITLE9=Blue Mountain Yodel
TTITLE10=Whispering of the Pines
EXTD=YEAR: 2002
EXTT0=
EXTT1=
EXTT2=
EXTT3=
EXTT4=
EXTT5=
EXTT6=
EXTT7=
EXTT8=
EXTT9=
EXTT10=
PLAYORDER=
